<svg width="667" height="536" viewBox="0 0 667 536" fill="none" xmlns="http://www.w3.org/2000/svg">
<path d="M667 498.042H0V499.593H667V498.042Z" fill="#3F3D56"/>
<path d="M418.489 232.441C418.489 232.441 388.571 255.945 403.53 261.287C418.489 266.629 428.105 242.057 428.105 242.057L418.489 232.441Z" fill="#FFB8B8"/>
<path d="M419.557 223.895L413.146 234.578C413.146 234.578 423.831 234.578 425.968 250.604L434.516 239.92L419.557 223.895Z" fill="#CFCCE0"/>
<path d="M561.666 467.482L562.734 499.532L549.912 507.01L544.57 503.806L545.638 467.482H561.666Z" fill="#FFB8B8"/>
<path d="M485.804 458.934L487.941 493.122L458.023 505.942L460.16 487.78C460.16 487.78 468.708 473.892 466.571 458.934H485.804Z" fill="#FFB8B8"/>
<path d="M531.748 201.459C531.748 201.459 548.844 246.33 552.05 274.108C555.255 301.885 560.598 375.602 560.598 375.602L571.282 470.686L541.365 474.96L528.543 378.807L499.694 283.723L493.283 378.807L487.941 465.345L460.16 466.413L458.023 376.67L446.27 262.356L452.68 207.869L531.748 201.459Z" fill="#2F2E41"/>
<path d="M547.776 501.669C547.776 501.669 549.528 483.726 562.543 493.766L564.872 492.054L575.557 515.558C575.557 515.558 588.378 533.72 565.94 535.856C543.502 537.993 545.639 515.558 545.639 515.558L543.502 505.942L544.57 499.646L547.776 501.669Z" fill="#2F2E41"/>
<path d="M485.804 480.302C488.434 481.805 490.613 483.985 492.116 486.615C493.619 489.245 494.391 492.23 494.352 495.259C494.352 505.942 493.283 507.011 493.283 507.011L477.256 511.284C477.256 511.284 466.571 510.216 460.16 516.626C453.749 523.036 421.694 527.31 421.694 518.763C421.694 510.216 448.407 496.327 448.407 496.327C448.407 496.327 456.339 482.932 461.989 484.288C467.639 485.643 469.776 487.78 469.776 488.849C469.776 489.917 466.571 497.395 466.571 497.395C466.571 497.395 484.735 493.122 485.804 480.302Z" fill="#2F2E41"/>
<path d="M483.666 70.0503C498.419 70.0503 510.378 58.0923 510.378 43.3413C510.378 28.5902 498.419 16.6322 483.666 16.6322C468.914 16.6322 456.954 28.5902 456.954 43.3413C456.954 58.0923 468.914 70.0503 483.666 70.0503Z" fill="#FFB8B8"/>
<path d="M503.433 50.2856L515.187 76.9947L483.132 122.934C483.132 122.934 480.995 72.7212 474.584 64.1743C468.173 55.6274 503.433 50.2856 503.433 50.2856Z" fill="#FFB8B8"/>
<path d="M488.475 105.841L493.817 91.952L498.091 93.0201L503.434 88.7465L510.913 65.2429L521.598 72.7212L535.488 212.677L448.941 214.813L460.694 117.592L471.379 89.8153L479.092 79.6201L484.201 95.1568L488.475 105.841Z" fill="#CFCCE0"/>
<path d="M513.05 165.669L516.319 69.0268C516.319 69.0268 522.666 69.5162 524.803 72.7212C526.94 75.9263 562.2 82.3365 562.2 82.3365L555.789 181.694C555.789 181.694 582.502 260.753 572.885 265.027C563.269 269.3 546.173 268.232 546.173 268.232L513.05 165.669Z" fill="#575A89"/>
<path d="M461.228 153.383L472.563 88.2497L447.338 105.306L453.749 152.314L448.406 184.365C448.406 184.365 428.105 273.039 434.516 276.244C440.927 279.449 448.406 276.244 448.406 276.244L461.228 186.502V153.383Z" fill="#575A89"/>
<path d="M454.817 103.17L447.338 105.306L444.133 148.041L438.79 185.434L413.146 231.373C413.146 231.373 425.968 222.826 431.311 247.399L459.552 198.236L454.817 103.17Z" fill="#575A89"/>
<path d="M538.159 223.895C538.159 223.895 508.241 247.399 523.2 252.74C538.159 258.082 547.775 233.51 547.775 233.51L538.159 223.895Z" fill="#FFB8B8"/>
<path d="M556.324 235.647L546.707 247.399L533.885 224.963L539.227 215.348L556.324 235.647Z" fill="#CFCCE0"/>
<path d="M554.186 86.0758L562.734 81.8023C562.734 81.8023 569.145 90.3492 570.214 97.8278C571.282 105.306 576.625 114.922 576.625 120.263C576.625 125.605 591.584 175.818 591.584 175.818L557.392 245.262C557.392 245.262 549.913 219.621 533.885 217.484L560.597 180.092L545.639 153.383L554.186 86.0758Z" fill="#575A89"/>
<path d="M506.029 17.8932L511.066 15.8769C511.066 15.8769 500.533 4.28275 485.88 5.29098L490.001 0.754102C490.001 0.754102 479.927 -3.2786 470.768 7.30729C465.954 12.8721 460.383 19.4132 456.911 26.7816H451.516L453.768 31.7385L445.888 36.6954L453.976 35.805C453.494 38.5195 453.42 41.2907 453.756 44.027C454.103 46.7641 455.5 49.2593 457.652 50.9861C457.652 50.9861 463.899 38.0569 463.899 36.0405V41.0814C463.899 41.0814 468.937 36.5446 468.937 33.5201L471.684 37.0487L473.058 31.5037L490.001 37.0487L487.254 32.5119L497.786 34.0242L493.664 28.4791C493.664 28.4791 505.57 35.0323 506.029 40.5773C506.486 46.1223 509.971 51.3765 509.971 51.3765C509.971 51.3765 519.308 25.4546 506.029 17.8932Z" fill="#2F2E41"/>
<path d="M505.57 42.8071C507.223 42.8071 508.562 41.133 508.562 39.0678C508.562 37.0027 507.223 35.3285 505.57 35.3285C503.918 35.3285 502.579 37.0027 502.579 39.0678C502.579 41.133 503.918 42.8071 505.57 42.8071Z" fill="#FFB8B8"/>
<path d="M123.639 220.195H31.4019V194.352H79.5479L123.639 220.195Z" fill="#FC4C41"/>
<path d="M31.1484 216.648V292.152H330.665V216.648H31.1484ZM147.965 279.484H50.6601V268.842H147.965V279.484ZM311.154 259.721H50.6601V249.079H311.154V259.721ZM311.154 239.958H50.6601V229.317H311.154V239.958Z" fill="#3F3D56"/>
<path d="M123.639 98.0716H31.4019V72.2277H79.5479L123.639 98.0716Z" fill="#FC4C41"/>
<path d="M31.1484 96.0444V171.548H330.665V96.0444H31.1484ZM147.965 158.88H50.6601V148.238H147.965V158.88ZM204.22 139.117H50.6601V128.476H204.22L204.22 139.117ZM311.154 119.354H50.6601V108.713H311.154V119.354Z" fill="#3F3D56"/>
<path d="M123.639 339.785H31.4019V313.942H79.5479L123.639 339.785Z" fill="#FC4C41"/>
<path d="M31.1484 334.718V410.222H330.665V334.718H31.1484ZM204.22 397.554H50.6601V386.912H204.22V397.554ZM204.22 377.791H50.6601V367.149H204.22V377.791ZM311.154 358.028H50.6601V347.387H311.154V358.028Z" fill="#3F3D56"/>
<path d="M415.554 154.826H372.982V112.26H401.87V113.273H373.997V153.813H414.54V133.543H415.554V154.826Z" fill="#3F3D56"/>
<path d="M394.049 143.723C393.065 140.819 380.729 130.946 388.288 129.286L394.487 137.551L422.989 109.053L425.856 111.92L394.049 143.723Z" fill="#FC4C41"/>
<path d="M415.554 275.43H372.982V232.863H401.87V233.877H373.997V274.416H414.54V254.147H415.554V275.43Z" fill="#3F3D56"/>
<path d="M394.049 264.327C393.065 261.423 380.729 251.549 388.288 249.89L394.487 258.155L422.989 229.657L425.856 232.523L394.049 264.327Z" fill="#FC4C41"/>
<path d="M415.554 395.527H372.982V352.961H401.87V353.974H373.997V394.513H414.54V374.243H415.554V395.527Z" fill="#3F3D56"/>
<path d="M394.049 384.424C393.065 381.519 380.729 371.646 388.288 369.987L394.487 378.252L422.989 349.754L425.856 352.62L394.049 384.424Z" fill="#FC4C41"/>
</svg>
